<?xml version="1.0" encoding="UTF-8" standalone="no"?>
<!-- Generator: Adobe Illustrator 27.0.0, SVG Export Plug-In . SVG Version: 6.00 Build 0)  -->

<svg
   version="1.1"
   id="Layer_1"
   x="0px"
   y="0px"
   viewBox="0 0 180 179.69538"
   xml:space="preserve"
   sodipodi:docname="favicon.svg"
   inkscape:version="1.3.2 (091e20e, 2023-11-25, custom)"
   width="393.358"
   height="393.358"
   xmlns:inkscape="http://www.inkscape.org/namespaces/inkscape"
   xmlns:sodipodi="http://sodipodi.sourceforge.net/DTD/sodipodi-0.dtd"
   xmlns="http://www.w3.org/2000/svg"
   xmlns:svg="http://www.w3.org/2000/svg"><defs
   id="defs16" /><sodipodi:namedview
      id="namedview16"
      pagecolor="#505050"
      bordercolor="#ffffff"
      borderopacity="1"
      inkscape:showpageshadow="0"
      inkscape:pageopacity="0"
      inkscape:pagecheckerboard="1"
      inkscape:deskcolor="#505050"
      inkscape:zoom="3.638"
      inkscape:cx="324.49148"
      inkscape:cy="237.63057"
      inkscape:window-width="3840"
      inkscape:window-height="2054"
      inkscape:window-x="-11"
      inkscape:window-y="-11"
      inkscape:window-maximized="1"
      inkscape:current-layer="Layer_1" />
<style
   type="text/css"
   id="style1">
      .st0{
      fill:#AAAAAA;
      }
      .st1{fill:#0891b2;}
      .st2{fill:#f97316;}
</style>

<g
   id="g15"
   transform="matrix(0.9999983,0,0,1.0000012,-260.35784,-114.40425)">
		
		<path
   class="st1"
   d="m 328.36,147.58 c 6.72,-3.83 13.42,-7.7 20.17,-11.46 0.66,-0.37 1.85,-0.46 2.49,-0.12 6.92,3.79 13.77,7.68 20.65,11.55 -0.17,0.42 -0.33,0.83 -0.5,1.25 -14.11,0 -28.23,0 -42.34,0 -0.16,-0.4 -0.32,-0.81 -0.47,-1.22 z"
   id="path10" />
		<path
   class="st2"
   d="m 290.11,194.66 c 0.04,-7.73 0.04,-15.47 0.16,-23.2 0.01,-0.76 0.52,-1.84 1.14,-2.21 6.74,-4.1 13.54,-8.09 20.33,-12.1 0.28,0.35 0.55,0.7 0.83,1.05 -7.06,12.22 -14.11,24.45 -21.17,36.67 -0.43,-0.07 -0.86,-0.14 -1.29,-0.21 z"
   id="path11" />
		<path
   class="st1"
   d="m 311.76,251.31 c -6.68,-3.9 -13.37,-7.77 -20.01,-11.74 -0.65,-0.39 -1.33,-1.37 -1.35,-2.1 -0.18,-7.88 -0.23,-15.77 -0.32,-23.66 0.44,-0.06 0.89,-0.13 1.33,-0.19 7.06,12.22 14.11,24.45 21.17,36.67 -0.27,0.35 -0.55,0.69 -0.82,1.02 z"
   id="path12" />
		<path
   class="st2"
   d="m 371.64,260.9 c -6.72,3.83 -13.42,7.7 -20.17,11.46 -0.66,0.37 -1.85,0.46 -2.49,0.12 -6.92,-3.79 -13.77,-7.68 -20.65,-11.55 0.17,-0.42 0.33,-0.83 0.5,-1.25 14.11,0 28.23,0 42.34,0 0.16,0.4 0.32,0.81 0.47,1.22 z"
   id="path13" />
		<path
   class="st1"
   d="m 409.89,213.83 c -0.04,7.73 -0.04,15.47 -0.16,23.2 -0.01,0.76 -0.52,1.84 -1.14,2.21 -6.74,4.1 -13.54,8.09 -20.33,12.1 -0.28,-0.35 -0.55,-0.7 -0.83,-1.05 7.06,-12.22 14.11,-24.45 21.17,-36.67 0.43,0.07 0.86,0.14 1.29,0.21 z"
   id="path14" />
		<path
   class="st2"
   d="m 388.24,157.17 c 6.68,3.9 13.37,7.77 20.01,11.74 0.65,0.39 1.33,1.37 1.35,2.1 0.18,7.88 0.23,15.77 0.32,23.66 -0.44,0.06 -0.89,0.13 -1.33,0.19 -7.06,-12.22 -14.11,-24.45 -21.17,-36.67 0.27,-0.34 0.55,-0.68 0.82,-1.02 z"
   id="path15" />
	</g><g
   inkscape:groupmode="layer"
   id="layer2"
   inkscape:label="Layer 1"><path
         d="M 90 0 c -1.32 0.0225 -2.6325 0.4754 -4.0925 1.3254 c -23.4699 13.67 -46.9803 27.2598 -70.5703 40.7298 c -3.01 1.71 -4.0497 3.7801 -4.0397 7.1401 c 0.1 27.19 0.1002 54.3903 -0.0098 81.5803 c -0.01 3.44 1.2399 5.3697 4.1899 7.0597 c 23.2799 13.31 46.5196 26.6999 69.6595 40.2499 c 3.48 2.04 6.1404 2.2099 9.7204 0.1099 c 23.3299 -13.68 46.7695 -27.1793 70.2494 -40.5994 c 2.79 -1.6 3.78 -3.5202 3.76 -6.6101 c -0.11 -13.54 -0.05 -27.0799 -0.05 -40.6199 c 0 -13.77 -0.0799 -27.5402 0.05 -41.2902 c 0.03 -3.23 -0.9699 -5.2406 -3.8699 -6.9006 c -23.68 -13.54 -47.2999 -27.1793 -70.8599 -40.9193 c -1.49 -0.87 -2.8172 -1.2782 -4.1372 -1.2557 z m 0 12 c 1.0725 0.015 2.1421 0.375 3.3221 1.06 c 20.3999 11.87 40.8302 23.6794 61.3101 35.4094 c 2.46 1.41 3.6002 3.0202 3.5902 5.9702 c -0.1 23.63 -0.0998 47.2602 -0.01 70.8902 c 0.01 2.88 -0.9703 4.5999 -3.4802 6.0399 c -20.2899 11.61 -40.5305 23.2903 -60.7104 35.0903 c -2.96 1.73 -5.2798 1.6798 -8.2198 -0.0402 c -20.1799 -11.79 -40.4196 -23.4696 -60.7095 -35.0796 c -2.54 -1.45 -3.4298 -3.24 -3.3998 -6.09 c 0.12 -11.82 0.05 -23.6305 0.05 -35.4505 c 0 -11.82 0.0699 -23.6296 -0.05 -35.4496 c -0.03 -2.77 0.9896 -4.3904 3.3596 -5.7504 c 20.5799 -11.8 41.1096 -23.6599 61.6095 -35.5899 c 1.19 -0.695 2.2656 -1.0249 3.3381 -1.0099 z"
         id="path2" class="st0" /></g></svg>
