<?xml version="1.0" encoding="UTF-8" standalone="no"?>
<!-- Generator: Adobe Illustrator 27.0.0, SVG Export Plug-In . SVG Version: 6.00 Build 0)  -->

<svg
   version="1.1"
   id="Layer_1"
   x="0px"
   y="0px"
   viewBox="0 0 112.55746 179.69538"
   xml:space="preserve"
   sodipodi:docname="uchen-icon.svg"
   inkscape:version="1.3.2 (091e20e, 2023-11-25, custom)"
   width="393.358"
   height="393.358"
   xmlns:inkscape="http://www.inkscape.org/namespaces/inkscape"
   xmlns:sodipodi="http://sodipodi.sourceforge.net/DTD/sodipodi-0.dtd"
   xmlns="http://www.w3.org/2000/svg"
   xmlns:svg="http://www.w3.org/2000/svg"><defs
   id="defs16" /><sodipodi:namedview
   id="namedview16"
   pagecolor="#505050"
   bordercolor="#ffffff"
   borderopacity="1"
   inkscape:showpageshadow="0"
   inkscape:pageopacity="0"
   inkscape:pagecheckerboard="1"
   inkscape:deskcolor="#505050"
   inkscape:zoom="3.638"
   inkscape:cx="324.62892"
   inkscape:cy="237.63057"
   inkscape:window-width="3840"
   inkscape:window-height="2054"
   inkscape:window-x="-11"
   inkscape:window-y="-11"
   inkscape:window-maximized="1"
   inkscape:current-layer="Layer_1" />
<style
   type="text/css"
   id="style1">
	.st0{fill:#AAAAAA;}
	.st1{fill:#29ABE2;}
	.st2{fill:#F15A24;}
</style>

<g
   id="g15"
   transform="matrix(0.9999983,0,0,1.0000012,-293.35784,-114.40425)">
		<path
   class="st0"
   d="m 428.74,204.77 c 0,13.54 -0.06,27.08 0.05,40.62 0.02,3.09 -0.97,5.01 -3.76,6.61 -23.48,13.42 -46.92,26.92 -70.25,40.6 -3.58,2.1 -6.24,1.93 -9.72,-0.11 -23.14,-13.55 -46.38,-26.94 -69.66,-40.25 -2.95,-1.69 -4.2,-3.62 -4.19,-7.06 0.11,-27.19 0.11,-54.39 0.01,-81.58 -0.01,-3.36 1.03,-5.43 4.04,-7.14 23.59,-13.47 47.1,-27.06 70.57,-40.73 2.92,-1.7 5.25,-1.81 8.23,-0.07 23.56,13.74 47.18,27.38 70.86,40.92 2.9,1.66 3.9,3.67 3.87,6.9 -0.13,13.75 -0.05,27.52 -0.05,41.29 z m -146.95,-0.61 c 0,11.82 0.07,23.63 -0.05,35.45 -0.03,2.85 0.86,4.64 3.4,6.09 20.29,11.61 40.53,23.29 60.71,35.08 2.94,1.72 5.26,1.77 8.22,0.04 20.18,-11.8 40.42,-23.48 60.71,-35.09 2.51,-1.44 3.49,-3.16 3.48,-6.04 -0.09,-23.63 -0.09,-47.26 0.01,-70.89 0.01,-2.95 -1.13,-4.56 -3.59,-5.97 -20.48,-11.73 -40.91,-23.54 -61.31,-35.41 -2.36,-1.37 -4.28,-1.44 -6.66,-0.05 -20.5,11.93 -41.03,23.79 -61.61,35.59 -2.37,1.36 -3.39,2.98 -3.36,5.75 0.12,11.82 0.05,23.63 0.05,35.45 z"
   id="path9" />
		<path
   class="st1"
   d="m 328.36,147.58 c 6.72,-3.83 13.42,-7.7 20.17,-11.46 0.66,-0.37 1.85,-0.46 2.49,-0.12 6.92,3.79 13.77,7.68 20.65,11.55 -0.17,0.42 -0.33,0.83 -0.5,1.25 -14.11,0 -28.23,0 -42.34,0 -0.16,-0.4 -0.32,-0.81 -0.47,-1.22 z"
   id="path10"
   style="fill:#29abe2" />
		<path
   class="st2"
   d="m 290.11,194.66 c 0.04,-7.73 0.04,-15.47 0.16,-23.2 0.01,-0.76 0.52,-1.84 1.14,-2.21 6.74,-4.1 13.54,-8.09 20.33,-12.1 0.28,0.35 0.55,0.7 0.83,1.05 -7.06,12.22 -14.11,24.45 -21.17,36.67 -0.43,-0.07 -0.86,-0.14 -1.29,-0.21 z"
   id="path11"
   style="fill:#f15a24" />
		<path
   class="st1"
   d="m 311.76,251.31 c -6.68,-3.9 -13.37,-7.77 -20.01,-11.74 -0.65,-0.39 -1.33,-1.37 -1.35,-2.1 -0.18,-7.88 -0.23,-15.77 -0.32,-23.66 0.44,-0.06 0.89,-0.13 1.33,-0.19 7.06,12.22 14.11,24.45 21.17,36.67 -0.27,0.35 -0.55,0.69 -0.82,1.02 z"
   id="path12"
   style="fill:#29abe2" />
		<path
   class="st2"
   d="m 371.64,260.9 c -6.72,3.83 -13.42,7.7 -20.17,11.46 -0.66,0.37 -1.85,0.46 -2.49,0.12 -6.92,-3.79 -13.77,-7.68 -20.65,-11.55 0.17,-0.42 0.33,-0.83 0.5,-1.25 14.11,0 28.23,0 42.34,0 0.16,0.4 0.32,0.81 0.47,1.22 z"
   id="path13"
   style="fill:#f15a24" />
		<path
   class="st1"
   d="m 409.89,213.83 c -0.04,7.73 -0.04,15.47 -0.16,23.2 -0.01,0.76 -0.52,1.84 -1.14,2.21 -6.74,4.1 -13.54,8.09 -20.33,12.1 -0.28,-0.35 -0.55,-0.7 -0.83,-1.05 7.06,-12.22 14.11,-24.45 21.17,-36.67 0.43,0.07 0.86,0.14 1.29,0.21 z"
   id="path14"
   style="fill:#29abe2" />
		<path
   class="st2"
   d="m 388.24,157.17 c 6.68,3.9 13.37,7.77 20.01,11.74 0.65,0.39 1.33,1.37 1.35,2.1 0.18,7.88 0.23,15.77 0.32,23.66 -0.44,0.06 -0.89,0.13 -1.33,0.19 -7.06,-12.22 -14.11,-24.45 -21.17,-36.67 0.27,-0.34 0.55,-0.68 0.82,-1.02 z"
   id="path15"
   style="fill:#f15a24" />
	</g></svg>
